<svg width="50" height="50" viewBox="0 0 50 50" fill="none" xmlns="http://www.w3.org/2000/svg">
<path d="M25.9804 11.3873V24.4728L29.6379 19.1796L25.9804 11.3873Z" fill="white"/>
<path d="M28.1436 27.6393L34.0941 29.6723L40.0446 23.5735L28.1436 27.6393Z" fill="white"/>
<path d="M27.5522 29.5852L33.4731 31.608L34.8708 40.1769L27.5522 29.5852Z" fill="white"/>
<path d="M24.0196 37.3793V30.8058L16.6702 41.442L24.0196 37.3793Z" fill="white"/>
<path d="M21.8564 27.6393L15.9059 29.6723L9.95544 23.5735L21.8564 27.6393Z" fill="white"/>
<path fill-rule="evenodd" clip-rule="evenodd" d="M25 0L32.7254 16.459L50 19.0983L37.5 31.9098L40.4508 50L25 41.459L9.54915 50L12.5 31.9098L0 19.0983L17.2746 16.459L25 0ZM31.4175 18.3218L45.8165 20.5218L35.3957 31.2023L37.8506 46.2518L25 39.1482L12.1494 46.2518L14.6042 31.2023L4.18345 20.5218L17.465 18.4926L23.2135 24.99L19.0614 17.3015L25 4.6493L31.4175 18.3218Z" fill="white"/>
</svg>
