<svg width="233" height="62" fill="none" xmlns="http://www.w3.org/2000/svg"><g clip-path="url(#clip0)"><path d="M0 0h233l-14.427 31.019L233 62.037H0L14.427 31.02 0 0z" fill="#C00"/><path d="M67.808 15.149h2.885v18.034h-2.885V15.149zM72.136 15.149h7.214v2.885h-7.214V15.15zM80.071 28.133h-2.885v.722c0 .796-.646 1.442-1.443 1.442h-3.607v2.886h3.607a4.328 4.328 0 0 0 4.328-4.328v-.722zM72.136 21.64h3.607a4.328 4.328 0 0 1 4.328 4.329v.721h-2.885v-.721c0-.797-.646-1.443-1.443-1.443h-3.607v-2.885zM154.372 33.183h2.885V15.149h-2.885v18.034zM158.7 15.149h2.885a4.328 4.328 0 0 1 4.328 4.328v.721h-2.885v-.721c0-.797-.646-1.443-1.443-1.443H158.7V15.15zM165.913 21.64v.722a4.328 4.328 0 0 1-4.328 4.328H158.7v-2.885h2.885c.797 0 1.443-.646 1.443-1.443v-.721h2.885zM85.12 15.149v6.492a4.328 4.328 0 0 0 4.329 4.328h.721v-2.885h-.721a1.443 1.443 0 0 1-1.443-1.443v-6.492h-2.885zM85.12 28.133h2.886v.722c0 .796.646 1.442 1.443 1.442h.721v2.886h-.721a4.328 4.328 0 0 1-4.328-4.328v-.722zM96.662 15.149h-2.885v7.935h-2.164v2.885h2.164v2.886c0 .796-.646 1.442-1.443 1.442h-.721v2.886h.721a4.328 4.328 0 0 0 4.328-4.328V15.149zM105.319 15.149h-2.886v18.034h2.886v-5.771h2.164v-2.886h-2.164V15.15zM113.975 15.149h-2.885v9.377h-2.164v2.886h2.164v5.77h2.885V15.15zM170.241 24.526h5.771v2.885h-5.771zM191.882 33.183h-2.885v-5.771h-2.164v-2.886h2.164V15.15h2.885v18.034zM186.111 15.149l-2.885 9.377h2.164v2.886h-5.049v-2.886l2.885-9.377h2.885zM137.059 15.149v18.034h5.049v-2.886h-2.164v-5.77h5.05V21.64h-5.05v-3.607h2.164V15.15h-5.049zM143.551 30.297h5.05v2.886h-5.05v-2.886zM148.601 15.149h-5.05v2.885h5.05V15.15zM119.746 15.149h2.886v18.034h-2.886V15.149zM127.32 15.149l-3.246 2.164v3.607l1.443-1.083 2.885 13.346h2.886l-3.607-14.788 4.328-3.246h-4.689zM200.539 19.477c0-.797.646-1.443 1.442-1.443h.722V15.15h-.722a4.328 4.328 0 0 0-4.328 4.328v.721h2.886v-.721zM204.867 15.149h-.721v2.885h.721c.797 0 1.443.646 1.443 1.443v1.442c0 .399-.1.822-.361 1.082l-2.736 2.737 1.984 1.983 2.555-2.555c.784-.784 1.443-2.051 1.443-3.247v-1.442a4.328 4.328 0 0 0-4.328-4.328zM204.176 27.741l-1.983-1.983-4.54 4.54v2.885h11.542v-2.886h-7.574l2.555-2.556zM129.845 39.675h1.445v7.935h-1.445v-7.935zM133.813 39.675l-1.804 1.443v1.442l1.082-.721 1.082 5.77h1.443l-1.443-6.491 1.804-1.443h-2.164zM69.25 39.675h-1.442v7.935h1.443v-2.164h1.082v-1.443H69.25v-4.328zM73.579 39.675h-1.443v4.328h-1.082v1.443h1.082v2.164h1.443v-7.935zM122.632 39.675h-1.443v7.935h1.443v-2.164h1.082v-1.443h-1.082v-4.328zM126.96 39.675h-1.443v4.328h-1.082v1.443h1.082v2.164h1.443v-7.935zM138.502 39.675v7.935h2.524v-1.443h-1.082v-2.164h2.525V42.56h-2.525v-1.442h1.082v-1.443h-2.524zM141.748 46.167h2.524v1.443h-2.524v-1.443zM144.272 39.675h-2.524v1.443h2.524v-1.443zM88.728 39.675v1.443h2.164v6.492h1.442v-6.492H94.5v-1.443h-5.771zM106.04 39.675v7.935h1.443v-6.492h2.885v-1.443h-4.328zM82.235 39.675v7.935h-1.442v-1.443H79.71v-1.443h1.083v-3.606H79.71v-1.443h2.525zM78.629 39.675h.36v1.443h-.36a.721.721 0 0 0-.722.721v2.886h1.082v1.442h-1.082v1.443h-1.443v-5.771c0-1.195.97-2.164 2.165-2.164zM103.155 39.675v7.935h-1.443v-1.443h-1.082v-1.443h1.082v-3.606h-1.082v-1.443h2.525zM99.548 41.118a.721.721 0 0 0-.721.721v2.886h1.082v1.442h-1.082v1.443h-1.443v-5.771c0-1.195.969-2.164 2.164-2.164h.36v1.443h-.36zM118.303 39.675v7.935h-1.442v-1.443h-1.082v-1.443h1.082v-3.606h-1.082v-1.443h2.524zM114.697 41.118a.721.721 0 0 0-.722.721v2.886h1.082v1.442h-1.082v1.443h-1.442v-5.771c0-1.195.968-2.164 2.164-2.164h.36v1.443h-.36zM42.921 20.313v9.25l2.691-3.741-2.69-5.509zM44.513 31.802l4.378 1.438 4.378-4.312-8.756 2.874zM44.078 33.178l4.356 1.43 1.029 6.058-5.385-7.488zM41.478 38.688V34.04l-5.407 7.519 5.407-2.872zM39.887 31.802l-4.379 1.438-4.378-4.312 8.757 2.874z" fill="#fff"/><path fill-rule="evenodd" clip-rule="evenodd" d="M42.2 12.263L47.884 23.9l12.71 1.865-9.197 9.057 2.171 12.789L42.2 41.572 30.83 47.61l2.171-12.789-9.197-9.057 12.71-1.865L42.2 12.263zm4.722 12.952l10.594 1.556-7.667 7.55 1.806 10.64-9.455-5.023-9.456 5.022 1.807-10.639-7.668-7.55 9.773-1.435 4.23 4.594-3.056-5.436 4.37-8.944 4.722 9.665z" fill="#fff"/><path fill="#fff" d="M14.427 5.771h204.146v1.443H14.427zM14.427 54.824h204.146v1.443H14.427z"/></g><defs><clipPath id="clip0"><path fill="#fff" d="M0 0h233v62H0z"/></clipPath></defs></svg>