<svg width="50" height="50" fill="none" xmlns="http://www.w3.org/2000/svg"><path fill="#fff" d="M0 0h50v50H0z"/><path fill-rule="evenodd" clip-rule="evenodd" d="M42.45 10.944L28.5 2.925a7.026 7.026 0 0 0-7 0l-13.95 8.02a6.965 6.965 0 0 0-3.5 6.036v16.038a6.965 6.965 0 0 0 3.5 6.037l13.95 8.019a7.026 7.026 0 0 0 7 0l13.95-8.02a6.965 6.965 0 0 0 3.5-6.036V16.981a6.965 6.965 0 0 0-3.5-6.037zM29.5 1.201a9.034 9.034 0 0 0-9 0L6.55 9.22a8.954 8.954 0 0 0-4.5 7.76v16.04a8.954 8.954 0 0 0 4.5 7.76L20.5 48.8a9.034 9.034 0 0 0 9 0l13.95-8.02a8.954 8.954 0 0 0 4.5-7.76V16.98a8.954 8.954 0 0 0-4.5-7.76L29.5 1.2z" fill="#C00"/></svg>